<?xml version="1.0" standalone="no"?>
<!DOCTYPE svg PUBLIC "-//W3C//DTD SVG 20010904//EN"
 "http://www.w3.org/TR/2001/REC-SVG-20010904/DTD/svg10.dtd">
<svg version="1.0" xmlns="http://www.w3.org/2000/svg"
 width="700.000000pt" height="700.000000pt" viewBox="0 0 700.000000 700.000000"
 preserveAspectRatio="xMidYMid meet">
<metadata>
Created by potrace 1.11, written by Peter Selinger 2001-2013
</metadata>
<g transform="translate(0.000000,700.000000) scale(0.100000,-0.100000)"
fill="#000000" stroke="none">
<path d="M0 3500 l0 -3500 3500 0 3500 0 0 3500 0 3500 -3500 0 -3500 0 0
-3500z m1520 0 l0 -1550 -325 0 -325 0 0 1550 0 1550 325 0 325 0 0 -1550z
m1328 472 c202 -844 259 -1072 271 -1070 10 2 94 307 295 1073 l281 1070 307
3 307 2 9 -32 c5 -18 132 -504 282 -1080 179 -682 279 -1048 287 -1048 16 0
-9 -96 279 1113 l249 1047 358 0 c283 0 358 -3 354 -12 -2 -7 -202 -705 -443
-1550 l-439 -1538 -320 0 -320 0 -294 1011 c-162 555 -298 1012 -303 1015 -5
4 -12 4 -15 1 -2 -3 -137 -459 -298 -1014 l-293 -1008 -320 -3 c-299 -2 -321
-1 -326 15 -17 58 -866 3033 -871 3056 l-7 27 357 -2 358 -3 255 -1073z"/>
</g>
</svg>
